<?xml version="1.0" encoding="utf-8"?>
<!-- Generator: Adobe Illustrator 19.2.1, SVG Export Plug-In . SVG Version: 6.00 Build 0)  -->
<svg version="1.1" id="Layer_6" xmlns="http://www.w3.org/2000/svg" xmlns:xlink="http://www.w3.org/1999/xlink" x="0px" y="0px"
	 viewBox="0 0 210 35" style="enable-background:new 0 0 210 35;" xml:space="preserve">
<style type="text/css">
	.st0{fill:#7AB9FF;}
	.st1{fill:#2F3438;}
</style>
<g>
	<path class="st0" d="M136.1,17.4c0,1.9-1.5,3.4-3.3,3.4c-1.9,0-3.4-1.5-3.4-3.3c0-1.9,1.5-3.4,3.3-3.4c0.9,0,3.4,0,3.4,0
		S136.1,16.5,136.1,17.4z"/>
	<path class="st1" d="M132.7,11.4L132.7,11.4h6c0.4,0,0.8-0.1,1.2-0.2c1.1-0.5,1.8-1.5,1.8-2.7V5.5h-8.9l0,0
		c-7.4,0-13.2,6.7-11.7,14.3c0.2,0.7,0.8,3.6,3.1,5.9c2.5,2.5,5.3,3.2,6,3.4c5.6,1.2,10.8-1.7,13.1-6.2c0.2-0.5,0.6-1.7,0.8-2.9
		c0.2-1,0.2-1.9,0.2-2.2l0,0c0-1.9-1.6-3.5-3.5-3.5h-2.1v3.1c0,3.3-2.7,6-6,6c-3.3,0-6.1-2.6-6.1-6
		C126.6,14.2,129.3,11.4,132.7,11.4z"/>
	<path class="st1" d="M150.1,27.1c-1.8-1.5-2.7-3.9-2.7-6.9V5.8h2.3c2,0,3.6,1.6,3.6,3.6v9.9c0,1.4,0.3,2.4,1,3.1
		c0.7,0.7,1.6,1,2.8,1c1.2,0,2.2-0.3,2.8-1.1s1-1.7,1-3.1V9.4c0-2,1.6-3.6,3.6-3.6h2.3v14.3c0,3.1-0.9,5.4-2.7,6.9
		c-1.8,1.5-3.8,2.3-7,2.3C154,29.4,151.9,28.6,150.1,27.1z"/>
	<path class="st1" d="M193.3,27.1c-1.8-1.5-2.7-3.9-2.7-6.9V5.8h2.9c1.7,0,3,1.3,3,3v10.5c0,1.4,0.3,2.4,1,3.1c0.7,0.7,1.6,1,2.8,1
		c1.2,0,2.2-0.3,2.8-1.1s1-1.7,1-3.1V9.1c0-1.8,1.5-3.2,3.2-3.2h2.6v14.3c0,3.1-0.9,5.4-2.7,6.9c-1.8,1.5-3.8,2.3-7,2.3
		C197.2,29.4,195.1,28.6,193.3,27.1z"/>
	<path class="st1" d="M169.9,29.2V5.8h8.1c3,0,5.3,0.7,6.9,2c1.6,1.3,2.5,3.2,2.5,5.7c0,1.6-0.4,2.9-1.1,4c-0.7,1.1-1.6,1.9-2.9,2.5
		c-0.1,0-0.1,0.1-0.1,0.2l5,9.1h-4c-1.3,0-2.6-0.7-3.2-2l-3.1-6.2h-2.3v6.3c0,1-0.8,1.9-1.9,1.9L169.9,29.2L169.9,29.2z M178.6,16.2
		c1,0,1.7-0.2,2.2-0.7c0.5-0.5,0.7-1.2,0.7-2s-0.2-1.5-0.7-2.1c-0.5-0.5-1.2-0.8-2.2-0.8h-2.8v5.5L178.6,16.2L178.6,16.2z"/>
	<g>
		<path class="st1" d="M7.3,29.2c-0.1-0.1-0.2-0.3-0.2-0.5V7.7H0.7c-0.2,0-0.4-0.1-0.5-0.2C0.1,7.4,0,7.2,0,7V6.5
			C0,6.2,0.1,6,0.2,5.9c0.1-0.2,0.3-0.2,0.5-0.2h14.9c0.2,0,0.4,0.1,0.6,0.2c0.1,0.1,0.2,0.3,0.2,0.6V7c0,0.2-0.1,0.4-0.2,0.5
			c-0.2,0.1-0.3,0.2-0.5,0.2H9.2v20.9c0,0.2-0.1,0.4-0.2,0.5c-0.2,0.1-0.3,0.2-0.5,0.2H7.8C7.6,29.4,7.5,29.3,7.3,29.2z"/>
		<path class="st1" d="M20.4,29.2c-0.1-0.1-0.2-0.3-0.2-0.5V6.4c0-0.2,0.1-0.4,0.2-0.6c0.1-0.2,0.3-0.2,0.5-0.2h12.7
			c0.2,0,0.4,0.1,0.6,0.2c0.1,0.1,0.2,0.3,0.2,0.6V7c0,0.2-0.1,0.4-0.2,0.5c-0.2,0.1-0.3,0.2-0.5,0.2H22.3v8.6h10.6
			c0.2,0,0.4,0.1,0.6,0.2c0.1,0.1,0.2,0.3,0.2,0.6v0.5c0,0.2-0.1,0.4-0.2,0.5s-0.3,0.2-0.5,0.2H22.3v9h11.6c0.2,0,0.4,0.1,0.6,0.2
			c0.1,0.1,0.2,0.3,0.2,0.6v0.5c0,0.2-0.1,0.4-0.2,0.5c-0.2,0.1-0.3,0.2-0.5,0.2H21C20.8,29.4,20.6,29.3,20.4,29.2z"/>
		<path class="st1" d="M37.4,29.2c-0.1-0.1-0.2-0.3-0.2-0.5l0.1-0.4l8.2-22c0.2-0.5,0.5-0.7,0.9-0.7h1.1c0.5,0,0.8,0.2,0.9,0.7
			l8.2,22l0.1,0.4c0,0.2-0.1,0.3-0.2,0.5c-0.1,0.1-0.3,0.2-0.5,0.2h-0.7c-0.2,0-0.3-0.1-0.5-0.2c-0.1-0.1-0.2-0.2-0.2-0.3l-2-5.4
			H41.2l-2,5.4c0,0.1-0.1,0.2-0.2,0.3c-0.1,0.1-0.3,0.2-0.5,0.2h-0.7C37.7,29.4,37.5,29.3,37.4,29.2z M42,21.4h9.9L47,8L42,21.4z"/>
		<path class="st1" d="M62.7,28.8c-1.2-0.6-2.2-1.3-2.9-2.2c-0.7-0.9-1-1.9-1.1-3c0-0.2,0.1-0.3,0.2-0.5c0.1-0.1,0.3-0.2,0.5-0.2
			h0.7c0.4,0,0.6,0.2,0.7,0.7c0.2,1.1,0.7,2,1.8,2.9c1,0.8,2.5,1.2,4.5,1.2c2.1,0,3.6-0.4,4.6-1.2c1-0.8,1.5-1.9,1.5-3.3
			c0-0.9-0.2-1.6-0.7-2.1c-0.5-0.6-1.2-1-2.1-1.5c-0.9-0.4-2.3-0.9-4.2-1.6c-1.7-0.6-3-1.1-3.9-1.6c-0.9-0.5-1.6-1.2-2.1-2
			c-0.5-0.8-0.7-1.8-0.7-3c0-1.2,0.3-2.2,0.9-3.1C61,7.4,61.8,6.6,63,6.1c1.1-0.5,2.5-0.8,4-0.8c1.6,0,3,0.3,4.1,0.9s2,1.4,2.6,2.3
			c0.6,0.9,0.9,1.8,0.9,2.8c0,0.2-0.1,0.3-0.2,0.5c-0.1,0.1-0.3,0.2-0.5,0.2h-0.7c-0.2,0-0.3-0.1-0.5-0.2s-0.2-0.3-0.2-0.5
			c-0.1-1.1-0.7-2.1-1.7-2.8c-1-0.7-2.3-1.1-3.9-1.1c-1.7,0-3,0.3-4,1c-1,0.7-1.5,1.7-1.5,3c0,0.9,0.2,1.6,0.7,2.2
			c0.4,0.6,1.1,1.1,2,1.5c0.9,0.4,2.2,0.9,3.9,1.5c1.8,0.6,3.2,1.2,4.2,1.7c1,0.5,1.7,1.2,2.3,2c0.5,0.8,0.8,1.8,0.8,3
			c0,2-0.7,3.6-2.2,4.8c-1.5,1.2-3.5,1.7-6,1.7C65.4,29.7,64,29.4,62.7,28.8z"/>
		<path class="st1" d="M80.1,29.2c-0.1-0.1-0.2-0.3-0.2-0.5V6.4c0-0.2,0.1-0.4,0.2-0.6c0.1-0.2,0.3-0.2,0.5-0.2h12.7
			c0.2,0,0.4,0.1,0.6,0.2C94,6,94.1,6.2,94.1,6.5V7c0,0.2-0.1,0.4-0.2,0.5c-0.2,0.1-0.3,0.2-0.5,0.2H82v8.6h10.6
			c0.2,0,0.4,0.1,0.6,0.2c0.1,0.1,0.2,0.3,0.2,0.6v0.5c0,0.2-0.1,0.4-0.2,0.5s-0.3,0.2-0.5,0.2H82v9h11.6c0.2,0,0.4,0.1,0.6,0.2
			c0.1,0.1,0.2,0.3,0.2,0.6v0.5c0,0.2-0.1,0.4-0.2,0.5c-0.2,0.1-0.3,0.2-0.5,0.2H80.7C80.4,29.4,80.3,29.3,80.1,29.2z"/>
		<path class="st1" d="M99.3,29.2c-0.1-0.1-0.2-0.3-0.2-0.5V6.4c0-0.2,0.1-0.4,0.2-0.6c0.1-0.2,0.3-0.2,0.5-0.2h7.6
			c2.3,0,4.2,0.6,5.5,1.7c1.3,1.2,2,2.9,2,5.1c0,1.8-0.4,3.2-1.3,4.3c-0.8,1.1-2.1,1.8-3.6,2.2l5.2,9.3c0.1,0.1,0.1,0.2,0.1,0.4
			c0,0.2-0.1,0.3-0.2,0.5c-0.1,0.1-0.3,0.2-0.5,0.2h-0.4c-0.3,0-0.6-0.1-0.7-0.2c-0.2-0.2-0.3-0.4-0.5-0.7l-5.2-9.1h-6.7v9.3
			c0,0.2-0.1,0.4-0.2,0.5c-0.2,0.1-0.3,0.2-0.5,0.2h-0.6C99.6,29.4,99.5,29.3,99.3,29.2z M107.3,17.3c1.9,0,3.3-0.4,4.2-1.2
			c0.9-0.8,1.4-2,1.4-3.6c0-1.6-0.5-2.8-1.4-3.6c-0.9-0.8-2.3-1.2-4.2-1.2h-6.1v9.6L107.3,17.3L107.3,17.3z"/>
	</g>
</g>
</svg>
